<svg width="486" height="40" viewBox="0 0 486 40" fill="none" xmlns="http://www.w3.org/2000/svg">
<g clip-path="url(#clip0_30_1554)">
<path d="M467.039 20.3817C467.039 20.3817 467.333 20.0882 467.92 19.5011C468.507 18.9141 468.801 17.7946 468.801 16.1429C468.801 14.4911 468.214 13.0781 467.039 11.904C465.865 10.7299 464.452 10.1429 462.801 10.1429C461.149 10.1429 459.736 10.7299 458.562 11.904C457.388 13.0781 456.801 14.4911 456.801 16.1429C456.801 17.7946 457.388 19.2076 458.562 20.3817C459.736 21.5558 461.149 22.1429 462.801 22.1429C464.452 22.1429 465.865 21.5558 467.039 20.3817ZM475.658 27.2857C475.658 27.75 475.488 28.1518 475.149 28.4911C474.81 28.8304 474.408 29 473.943 29C473.461 29 473.06 28.8304 472.738 28.4911L468.144 23.9107C466.546 25.0179 464.765 25.5714 462.801 25.5714C461.524 25.5714 460.303 25.3237 459.138 24.8281C457.973 24.3326 456.968 23.6629 456.124 22.8192C455.281 21.9754 454.611 20.971 454.115 19.8058C453.62 18.6406 453.372 17.4196 453.372 16.1429C453.372 14.8661 453.62 13.6451 454.115 12.4799C454.611 11.3147 455.281 10.3103 456.124 9.46652C456.968 8.62277 457.973 7.95312 459.138 7.45759C460.303 6.96205 461.524 6.71428 462.801 6.71428C464.077 6.71428 465.298 6.96205 466.464 7.45759C467.629 7.95312 468.633 8.62277 469.477 9.46652C470.321 10.3103 470.99 11.3147 471.486 12.4799C471.981 13.6451 472.229 14.8661 472.229 16.1429C472.229 18.1071 471.676 19.8884 470.568 21.4866L475.162 26.0804C475.493 26.4107 475.658 26.8125 475.658 27.2857Z" fill="#CED4DA"/>
</g>
<rect x="1.36011" y="0.5" width="483.8" height="39" rx="11.5" stroke="#CED4DA"/>
<defs>
<clipPath id="clip0_30_1554">
<rect width="22.29" height="24" fill="white" transform="matrix(1 0 0 -1 453.37 29)"/>
</clipPath>
</defs>
</svg>
