<svg width="78" height="78" viewBox="0 0 78 78" fill="none" xmlns="http://www.w3.org/2000/svg">
<g clip-path="url(#clip0_5_819)">
<path d="M38.6001 0.0275879C17.28 0.0275879 0 17.3108 0 38.6277C0 59.9446 17.28 77.2278 38.6001 77.2278C59.917 77.2278 77.2002 59.9446 77.2002 38.6277C77.2002 17.3108 59.917 0.0275879 38.6001 0.0275879Z" fill="#CCCCCC"/>
<path d="M55.5842 53.5435C58.6401 55.4542 61.1072 57.8667 62.7092 60.6009C61.1072 57.8667 58.6401 55.4542 55.5874 53.5435H55.5842ZM39.6038 48.934H39.5234H39.6038ZM43.1679 49.2299C43.0018 49.2074 42.8356 49.1859 42.6693 49.1656L42.4055 49.1366L42.6693 49.1688C42.8365 49.1881 43.0006 49.2074 43.1679 49.2331V49.2299ZM41.0931 49.0144L40.9162 49.0015L41.0931 49.0144ZM38.6002 48.9179C36.5479 48.9179 34.4185 49.1173 32.2794 49.5066C24.3503 50.9508 17.7015 55.1357 14.4912 60.5976C17.4945 64.0385 21.2003 66.7957 25.3591 68.6834C29.5179 70.571 34.033 71.5454 38.6002 71.5408V48.9211V48.9179Z" fill="#F1F1F1"/>
<path d="M55.5841 53.5435C54.8121 53.061 54.008 52.6139 53.1877 52.2086C50.3423 50.8154 47.3025 49.861 44.1714 49.3779L43.9591 49.3457C43.53 49.2806 43.1 49.2216 42.6692 49.1688L42.4054 49.1366C42.2404 49.1184 42.0753 49.1012 41.9101 49.0852L41.6527 49.0594L41.093 49.0144L40.9161 49.0015C40.6815 48.9844 40.4466 48.9705 40.2117 48.9597L39.9028 48.9469L39.6037 48.9372H39.5233C39.2157 48.9262 38.9079 48.9197 38.6001 48.9179V71.544C43.1669 71.5463 47.6813 70.5709 51.8397 68.6834C55.9982 66.7959 59.7043 64.0399 62.7091 60.6009C61.104 57.8667 58.64 55.4542 55.5841 53.5435Z" fill="white"/>
<path d="M38.6001 45.4405V17.0373C34.8335 17.0373 31.2213 18.5335 28.558 21.1968C25.8947 23.8602 24.3984 27.4724 24.3984 31.2389C24.3984 35.0054 25.8947 38.6176 28.558 41.281C31.2213 43.9443 34.8335 45.4405 38.6001 45.4405Z" fill="#F1F1F1"/>
<path d="M52.7985 31.2389C52.7989 29.3741 52.432 27.5274 51.7186 25.8044C51.0053 24.0814 49.9595 22.5158 48.641 21.197C47.3225 19.8783 45.7572 18.8321 44.0343 18.1184C42.3115 17.4047 40.4649 17.0373 38.6001 17.0373V45.4405C40.4649 45.4405 42.3115 45.0732 44.0343 44.3594C45.7572 43.6457 47.3225 42.5996 48.641 41.2808C49.9595 39.962 51.0053 38.3964 51.7186 36.6734C52.432 34.9504 52.7989 33.1037 52.7985 31.2389Z" fill="white"/>
</g>
<defs>
<clipPath id="clip0_5_819">
<rect width="77.2002" height="77.2002" fill="white" transform="translate(0 0.0275879)"/>
</clipPath>
</defs>
</svg>
