<svg width="78" height="78" viewBox="0 0 78 78" fill="none" xmlns="http://www.w3.org/2000/svg">
<g clip-path="url(#clip0_5_782)">
<path d="M38.6001 0.0601807C17.28 0.0601807 0 17.3434 0 38.6603C0 59.9772 17.28 77.2603 38.6001 77.2603C59.917 77.2603 77.2002 59.9772 77.2002 38.6603C77.2002 17.3434 59.917 0.0601807 38.6001 0.0601807Z" fill="#CCCCCC"/>
<path d="M55.5842 53.576C58.6401 55.4867 61.1072 57.8992 62.7092 60.6333C61.1072 57.8992 58.6401 55.4867 55.5874 53.576H55.5842ZM39.6038 48.9665H39.5234H39.6038ZM43.1679 49.2624C43.0018 49.2399 42.8356 49.2184 42.6693 49.1981L42.4055 49.1691L42.6693 49.2013C42.8365 49.2206 43.0006 49.2399 43.1679 49.2656V49.2624ZM41.0931 49.0469L40.9162 49.034L41.0931 49.0469ZM38.6002 48.9504C36.5479 48.9504 34.4185 49.1498 32.2794 49.539C24.3503 50.9833 17.7015 55.1682 14.4912 60.6301C17.4945 64.071 21.2003 66.8281 25.3591 68.7158C29.5179 70.6035 34.033 71.5779 38.6002 71.5732V48.9536V48.9504Z" fill="#F1F1F1"/>
<path d="M55.5841 53.576C54.8121 53.0935 54.008 52.6463 53.1877 52.241C50.3423 50.8479 47.3025 49.8935 44.1714 49.4104L43.9591 49.3782C43.53 49.3131 43.1 49.2541 42.6692 49.2013L42.4054 49.1691C42.2404 49.1509 42.0753 49.1337 41.9101 49.1176L41.6527 49.0919L41.093 49.0469L40.9161 49.034C40.6815 49.0169 40.4466 49.0029 40.2117 48.9922L39.9028 48.9793L39.6037 48.9697H39.5233C39.2157 48.9586 38.9079 48.9522 38.6001 48.9504V71.5765C43.1669 71.5788 47.6813 70.6034 51.8397 68.7159C55.9982 66.8283 59.7043 64.0724 62.7091 60.6333C61.104 57.8992 58.64 55.4867 55.5841 53.576Z" fill="white"/>
<path d="M38.6001 45.4732V17.0699C34.8335 17.0699 31.2213 18.5662 28.558 21.2295C25.8947 23.8928 24.3984 27.5051 24.3984 31.2716C24.3984 35.0381 25.8947 38.6503 28.558 41.3136C31.2213 43.9769 34.8335 45.4732 38.6001 45.4732Z" fill="#F1F1F1"/>
<path d="M52.7985 31.2716C52.7989 29.4067 52.432 27.5601 51.7186 25.8371C51.0053 24.1141 49.9595 22.5485 48.641 21.2297C47.3225 19.9109 45.7572 18.8648 44.0343 18.151C42.3115 17.4373 40.4649 17.0699 38.6001 17.0699V45.4732C40.4649 45.4732 42.3115 45.1058 44.0343 44.3921C45.7572 43.6783 47.3225 42.6322 48.641 41.3134C49.9595 39.9946 51.0053 38.429 51.7186 36.706C52.432 34.983 52.7989 33.1364 52.7985 31.2716Z" fill="white"/>
</g>
<defs>
<clipPath id="clip0_5_782">
<rect width="77.2002" height="77.2002" fill="white" transform="translate(0 0.0601807)"/>
</clipPath>
</defs>
</svg>
