<svg width="78" height="78" viewBox="0 0 78 78" fill="none" xmlns="http://www.w3.org/2000/svg">
<g clip-path="url(#clip0_5_797)">
<path d="M38.6001 0.620483C17.28 0.620483 0 17.9037 0 39.2206C0 60.5375 17.28 77.8206 38.6001 77.8206C59.917 77.8206 77.2002 60.5375 77.2002 39.2206C77.2002 17.9037 59.917 0.620483 38.6001 0.620483Z" fill="#CCCCCC"/>
<path d="M55.5842 54.1364C58.6401 56.0471 61.1072 58.4596 62.7092 61.1938C61.1072 58.4596 58.6401 56.0471 55.5874 54.1364H55.5842ZM39.6038 49.5269H39.5234H39.6038ZM43.1679 49.8228C43.0018 49.8003 42.8356 49.7788 42.6693 49.7585L42.4055 49.7295L42.6693 49.7617C42.8365 49.781 43.0006 49.8003 43.1679 49.826V49.8228ZM41.0931 49.6073L40.9162 49.5944L41.0931 49.6073ZM38.6002 49.5108C36.5479 49.5108 34.4185 49.7102 32.2794 50.0995C24.3503 51.5437 17.7015 55.7286 14.4912 61.1905C17.4945 64.6314 21.2003 67.3886 25.3591 69.2762C29.5179 71.1639 34.033 72.1383 38.6002 72.1337V49.514V49.5108Z" fill="#F1F1F1"/>
<path d="M55.5841 54.1364C54.8121 53.6539 54.008 53.2068 53.1877 52.8015C50.3423 51.4083 47.3025 50.4539 44.1714 49.9708L43.9591 49.9386C43.53 49.8735 43.1 49.8145 42.6692 49.7617L42.4054 49.7295C42.2404 49.7113 42.0753 49.6941 41.9101 49.6781L41.6527 49.6523L41.093 49.6073L40.9161 49.5944C40.6815 49.5773 40.4466 49.5634 40.2117 49.5526L39.9028 49.5398L39.6037 49.5301H39.5233C39.2157 49.519 38.9079 49.5126 38.6001 49.5108V72.1369C43.1669 72.1392 47.6813 71.1638 51.8397 69.2763C55.9982 67.3888 59.7043 64.6328 62.7091 61.1938C61.104 58.4596 58.64 56.0471 55.5841 54.1364Z" fill="white"/>
<path d="M38.6001 46.0335V17.6302C34.8335 17.6302 31.2213 19.1265 28.558 21.7898C25.8947 24.4531 24.3984 28.0654 24.3984 31.8319C24.3984 35.5984 25.8947 39.2106 28.558 41.8739C31.2213 44.5372 34.8335 46.0335 38.6001 46.0335Z" fill="#F1F1F1"/>
<path d="M52.7985 31.8319C52.7989 29.967 52.432 28.1204 51.7186 26.3974C51.0053 24.6744 49.9595 23.1088 48.641 21.79C47.3225 20.4712 45.7572 19.4251 44.0343 18.7113C42.3115 17.9976 40.4649 17.6302 38.6001 17.6302V46.0335C40.4649 46.0335 42.3115 45.6661 44.0343 44.9524C45.7572 44.2386 47.3225 43.1925 48.641 41.8737C49.9595 40.5549 51.0053 38.9893 51.7186 37.2663C52.432 35.5433 52.7989 33.6967 52.7985 31.8319Z" fill="white"/>
</g>
<defs>
<clipPath id="clip0_5_797">
<rect width="77.2002" height="77.2002" fill="white" transform="translate(0 0.620483)"/>
</clipPath>
</defs>
</svg>
