<svg width="78" height="78" viewBox="0 0 78 78" fill="none" xmlns="http://www.w3.org/2000/svg">
<g clip-path="url(#clip0_5_837)">
<path d="M38.6001 0.458374C17.28 0.458374 0 17.7416 0 39.0585C0 60.3754 17.28 77.6585 38.6001 77.6585C59.917 77.6585 77.2002 60.3754 77.2002 39.0585C77.2002 17.7416 59.917 0.458374 38.6001 0.458374Z" fill="#CCCCCC"/>
<path d="M55.5842 53.9743C58.6401 55.885 61.1072 58.2975 62.7092 61.0316C61.1072 58.2975 58.6401 55.885 55.5874 53.9743H55.5842ZM39.6038 49.3648H39.5234H39.6038ZM43.1679 49.6607C43.0018 49.6382 42.8356 49.6167 42.6693 49.5964L42.4055 49.5674L42.6693 49.5996C42.8365 49.6189 43.0006 49.6382 43.1679 49.6639V49.6607ZM41.0931 49.4452L40.9162 49.4323L41.0931 49.4452ZM38.6002 49.3487C36.5479 49.3487 34.4185 49.5481 32.2794 49.9373C24.3503 51.3816 17.7015 55.5665 14.4912 61.0284C17.4945 64.4693 21.2003 67.2264 25.3591 69.1141C29.5179 71.0018 34.033 71.9762 38.6002 71.9716V49.3519V49.3487Z" fill="#F1F1F1"/>
<path d="M55.5846 53.9743C54.8126 53.4918 54.0085 53.0447 53.1882 52.6394C50.3428 51.2462 47.3029 50.2918 44.1719 49.8087L43.9596 49.7765C43.5305 49.7114 43.1005 49.6524 42.6697 49.5996L42.4059 49.5674C42.2409 49.5492 42.0758 49.532 41.9105 49.516L41.6532 49.4902L41.0935 49.4452L40.9166 49.4323C40.682 49.4152 40.4471 49.4012 40.2121 49.3905L39.9033 49.3776L39.6042 49.368H39.5238C39.2162 49.3569 38.9084 49.3505 38.6006 49.3487V71.9748C43.1674 71.9771 47.6817 71.0017 51.8402 69.1142C55.9987 67.2266 59.7048 64.4707 62.7096 61.0316C61.1044 58.2975 58.6405 55.885 55.5846 53.9743Z" fill="white"/>
<path d="M38.6001 45.8713V17.4681C34.8335 17.4681 31.2213 18.9643 28.558 21.6276C25.8947 24.291 24.3984 27.9032 24.3984 31.6697C24.3984 35.4362 25.8947 39.0484 28.558 41.7118C31.2213 44.3751 34.8335 45.8713 38.6001 45.8713Z" fill="#F1F1F1"/>
<path d="M52.799 31.6697C52.7994 29.8049 52.4325 27.9582 51.7191 26.2352C51.0058 24.5122 49.96 22.9466 48.6415 21.6278C47.323 20.309 45.7577 19.2629 44.0348 18.5492C42.312 17.8354 40.4654 17.4681 38.6006 17.4681V45.8713C40.4654 45.8713 42.312 45.5039 44.0348 44.7902C45.7577 44.0765 47.323 43.0303 48.6415 41.7116C49.96 40.3928 51.0058 38.8272 51.7191 37.1042C52.4325 35.3812 52.7994 33.5345 52.799 31.6697Z" fill="white"/>
</g>
<defs>
<clipPath id="clip0_5_837">
<rect width="77.2002" height="77.2002" fill="white" transform="translate(0 0.458374)"/>
</clipPath>
</defs>
</svg>
