<svg width="78" height="78" viewBox="0 0 78 78" fill="none" xmlns="http://www.w3.org/2000/svg">
<g clip-path="url(#clip0_5_825)">
<path d="M38.6001 0C17.28 0 0 17.2832 0 38.6001C0 59.917 17.28 77.2002 38.6001 77.2002C59.917 77.2002 77.2002 59.917 77.2002 38.6001C77.2002 17.2832 59.917 0 38.6001 0Z" fill="#CCCCCC"/>
<path d="M55.5842 53.5158C58.6401 55.4265 61.1072 57.839 62.7092 60.5732C61.1072 57.839 58.6401 55.4265 55.5874 53.5158H55.5842ZM39.6038 48.9063H39.5234H39.6038ZM43.1679 49.2023C43.0018 49.1797 42.8356 49.1583 42.6693 49.1379L42.4055 49.109L42.6693 49.1412C42.8365 49.1605 43.0006 49.1798 43.1679 49.2055V49.2023ZM41.0931 48.9868L40.9162 48.9739L41.0931 48.9868ZM38.6002 48.8903C36.5479 48.8903 34.4185 49.0897 32.2794 49.4789C24.3503 50.9232 17.7015 55.1081 14.4912 60.57C17.4945 64.0109 21.2003 66.768 25.3591 68.6557C29.5179 70.5434 34.033 71.5178 38.6002 71.5131V48.8935V48.8903Z" fill="#F1F1F1"/>
<path d="M55.5841 53.5158C54.8121 53.0333 54.008 52.5862 53.1877 52.1809C50.3423 50.7877 47.3025 49.8334 44.1714 49.3502L43.9591 49.3181C43.53 49.2529 43.1 49.194 42.6692 49.1412L42.4054 49.109C42.2404 49.0907 42.0753 49.0736 41.9101 49.0575L41.6527 49.0318L41.093 48.9868L40.9161 48.9739C40.6815 48.9567 40.4466 48.9428 40.2117 48.9321L39.9028 48.9192L39.6037 48.9096H39.5233C39.2157 48.8985 38.9079 48.8921 38.6001 48.8903V71.5163C43.1669 71.5187 47.6813 70.5433 51.8397 68.6557C55.9982 66.7682 59.7043 64.0123 62.7091 60.5732C61.104 57.839 58.64 55.4265 55.5841 53.5158Z" fill="white"/>
<path d="M38.6001 45.413V17.0098C34.8335 17.0098 31.2213 18.506 28.558 21.1693C25.8947 23.8326 24.3984 27.4449 24.3984 31.2114C24.3984 34.9779 25.8947 38.5901 28.558 41.2534C31.2213 43.9168 34.8335 45.413 38.6001 45.413Z" fill="#F1F1F1"/>
<path d="M52.7985 31.2114C52.7989 29.3465 52.432 27.4999 51.7186 25.7769C51.0053 24.0539 49.9595 22.4883 48.641 21.1695C47.3225 19.8507 45.7572 18.8046 44.0343 18.0909C42.3115 17.3771 40.4649 17.0098 38.6001 17.0098V45.413C40.4649 45.413 42.3115 45.0456 44.0343 44.3319C45.7572 43.6182 47.3225 42.572 48.641 41.2532C49.9595 39.9345 51.0053 38.3689 51.7186 36.6459C52.432 34.9229 52.7989 33.0762 52.7985 31.2114Z" fill="white"/>
</g>
<defs>
<clipPath id="clip0_5_825">
<rect width="77.2002" height="77.2002" fill="white"/>
</clipPath>
</defs>
</svg>
