<svg width="27" height="26" viewBox="0 0 27 26" fill="none" xmlns="http://www.w3.org/2000/svg">
<path d="M26.4993 13.0306C26.4244 20.267 20.5926 26.0536 13.4277 25.9996C6.22111 25.9439 0.424085 20.0683 0.500752 12.8999C0.579161 5.67923 6.42496 -0.0673588 13.6246 0.000596521C20.7529 0.065067 26.5708 5.95454 26.4993 13.0306ZM5.64088 21.2131C5.83081 21.194 5.95625 21.1887 6.07822 21.1678C7.27526 20.964 8.4723 20.7479 9.67108 20.5562C9.86972 20.5249 10.1032 20.5423 10.2896 20.6172C11.3246 21.0354 12.3945 21.234 13.5114 21.2323C18.08 21.2253 21.7286 17.5662 21.7286 12.9818C21.7286 8.4288 18.0364 4.74353 13.4783 4.7505C7.64814 4.75922 3.65278 10.7009 5.87262 16.1043C6.12527 16.7194 6.20368 17.2874 6.08345 17.9199C5.98413 18.4392 5.92837 18.9654 5.86042 19.4898C5.78375 20.0492 5.71581 20.612 5.64088 21.2131Z" fill="white"/>
<path d="M7.3397 19.5299C7.45121 18.6901 7.57492 17.9443 7.6359 17.1933C7.65855 16.9023 7.60628 16.5643 7.47211 16.3099C5.26273 12.1211 7.63242 7.11851 12.2533 6.24206C16.1232 5.50849 19.7945 8.21799 20.319 12.196C20.819 15.9823 17.9057 19.5369 14.0637 19.8384C12.8388 19.9342 11.6783 19.7146 10.5562 19.2233C10.3157 19.1187 10.0091 19.0891 9.74423 19.1257C8.96711 19.2285 8.19697 19.3818 7.3397 19.5299ZM12.0651 11.0111C11.7985 10.3926 11.5842 9.81756 11.3037 9.27914C11.1608 9.00558 10.8663 9.06831 10.6154 9.19551C9.79128 9.61369 9.30166 10.5476 9.51597 11.4555C9.64666 12.0043 9.86097 12.548 10.1223 13.0481C11.2532 15.2157 13.0252 16.5678 15.4123 17.1097C15.9333 17.2282 16.3741 17.0731 16.7331 16.6863C16.9265 16.4772 17.1094 16.2559 17.2837 16.0294C17.5015 15.7488 17.4962 15.4683 17.2087 15.2383C16.8847 14.9804 16.5658 14.7069 16.2051 14.5117C16.0448 14.4263 15.7469 14.4472 15.5865 14.5448C15.3112 14.7121 15.1126 14.9961 14.8495 15.1913C14.7241 15.2853 14.4801 15.376 14.3721 15.3167C13.0844 14.6215 12.032 13.6875 11.4379 12.3093C11.3455 12.0967 11.3891 11.9608 11.5546 11.7848C11.7567 11.5722 11.8891 11.2882 12.0651 11.0111Z" fill="white"/>
</svg>
