<svg width="27" height="28" viewBox="0 0 27 28" fill="none" xmlns="http://www.w3.org/2000/svg">
<path d="M26.8598 13.7745C26.8438 21.1492 20.8804 27.1216 13.5536 27.0983C6.21088 27.0751 0.323879 21.1081 0.339876 13.7012C0.354096 6.38365 6.3122 0.425609 13.607 0.438115C20.9142 0.452407 26.874 6.44975 26.8598 13.7745ZM14.741 23.8237C14.741 21.0242 14.741 18.2622 14.741 15.4592C15.5533 15.4592 16.3105 15.4681 17.0677 15.4502C17.1921 15.4467 17.4072 15.343 17.4214 15.2555C17.6098 14.2068 17.768 13.1528 17.9458 12.0308C16.8491 12.0308 15.8075 12.0308 14.7339 12.0308C14.7339 11.1787 14.7357 10.389 14.7339 9.59939C14.7321 8.89907 15.0698 8.41492 15.7097 8.18804C16.0457 8.06834 16.4189 8.04154 16.7798 8.01832C17.1957 7.98973 17.6134 8.01117 18.0275 8.01117C18.0275 7.02501 18.0275 6.1121 18.0275 5.17596C17.3788 5.14559 16.7673 5.11522 16.1576 5.09021C15.7062 5.07056 15.2529 5.02233 14.8032 5.05091C12.9013 5.16882 11.5557 6.34078 11.2358 8.31131C11.0669 9.35821 11.1363 10.4426 11.0972 11.511C11.0918 11.6789 11.0812 11.8468 11.0723 12.0523C10.0431 12.0523 9.07084 12.0523 8.07368 12.0523C8.07368 13.1974 8.07368 14.3015 8.07368 15.4627C9.08328 15.4627 10.068 15.4627 11.1078 15.4627C11.1078 18.2801 11.1078 21.0403 11.1078 23.8219C12.3272 23.8237 13.4896 23.8237 14.741 23.8237Z" fill="white"/>
</svg>
