<svg width="27" height="28" viewBox="0 0 27 28" fill="none" xmlns="http://www.w3.org/2000/svg">
<path d="M26.8598 14.0961C26.8598 21.4768 20.9223 27.4281 13.5679 27.4191C6.26684 27.4102 0.311502 21.3982 0.339945 14.064C0.368389 6.7048 6.31305 0.748129 13.6212 0.758849C20.9401 0.767783 26.8598 6.7316 26.8598 14.0961ZM13.5821 22.6006C14.8798 22.6006 16.1794 22.6166 17.4771 22.597C20.0725 22.5595 22.0565 20.5942 22.0849 17.9946C22.1151 15.3843 22.1151 12.7758 22.0867 10.1655C22.0582 7.57668 20.0281 5.59172 17.4575 5.58815C14.8763 5.58457 12.2933 5.58278 9.71204 5.58993C7.15747 5.59708 5.13621 7.63921 5.13087 10.2084C5.12732 12.7454 5.1291 15.2807 5.13087 17.8177C5.13087 20.5995 7.09525 22.5863 9.86315 22.6006C11.1022 22.6059 12.3431 22.6006 13.5821 22.6006Z" fill="white"/>
<path d="M20.5915 14.0852C20.5915 15.3466 20.5969 16.6079 20.5898 17.8693C20.5791 19.7381 19.244 21.0889 17.3863 21.0978C14.8762 21.1085 12.3661 21.1085 9.8577 21.0978C7.968 21.0906 6.62582 19.7542 6.61516 17.8586C6.60094 15.3502 6.60094 12.8435 6.61516 10.335C6.62582 8.43227 7.96088 7.09229 9.84704 7.08335C12.3572 7.07263 14.8673 7.07085 17.3756 7.08335C19.2636 7.09229 20.5844 8.44477 20.5915 10.3458C20.5951 11.5911 20.5915 12.8381 20.5915 14.0852ZM13.6193 18.7323C16.1579 18.7341 18.2645 16.6276 18.2609 14.0941C18.2574 11.5696 16.1384 9.44708 13.6176 9.4453C11.079 9.44351 9.00441 11.5339 9.00085 14.0959C8.99907 16.6651 11.0577 18.7323 13.6193 18.7323ZM18.1383 10.5262C18.684 10.5316 19.1498 10.0706 19.1427 9.53105C19.1356 9.00935 18.6823 8.56091 18.1596 8.55733C17.5996 8.55376 17.1552 8.99506 17.1641 9.55071C17.1712 10.0938 17.5979 10.5209 18.1383 10.5262Z" fill="white"/>
<path d="M16.6347 14.1123C16.624 15.7989 15.2552 17.1692 13.5912 17.1567C11.922 17.146 10.5656 15.7632 10.5762 14.0819C10.5851 12.4114 11.9824 11.0357 13.6446 11.0589C15.2961 11.0839 16.6436 12.4597 16.6347 14.1123Z" fill="white"/>
</svg>
