<svg width="28" height="28" viewBox="0 0 28 28" fill="none" xmlns="http://www.w3.org/2000/svg">
<path d="M27.331 14.1851C27.331 21.7485 21.3848 27.8472 14.0197 27.8381C6.70806 27.8289 0.744078 21.668 0.772563 14.1521C0.801047 6.61069 6.75435 0.506485 14.0731 0.517471C21.4026 0.526625 27.331 6.63815 27.331 14.1851ZM14.034 22.9002C15.3336 22.9002 16.635 22.9166 17.9346 22.8965C20.5338 22.858 22.5206 20.8441 22.5491 18.1801C22.5794 15.5052 22.5794 12.8321 22.5509 10.1571C22.5224 7.50416 20.4893 5.47004 17.915 5.46638C15.33 5.46272 12.7433 5.46088 10.1583 5.46821C7.59999 5.47553 5.57579 7.56824 5.57045 10.2011C5.56689 12.8009 5.56867 15.399 5.57045 17.9988C5.57045 20.8496 7.53768 22.8855 10.3096 22.9002C11.5505 22.9057 12.7931 22.9002 14.034 22.9002Z" fill="white"/>
<path d="M21.0537 14.174C21.0537 15.4666 21.0591 16.7592 21.052 18.0518C21.0413 19.9669 19.7043 21.3511 17.8439 21.3602C15.3301 21.3712 12.8163 21.3712 10.3043 21.3602C8.41187 21.3529 7.06775 19.9834 7.05707 18.0408C7.04283 15.4702 7.04283 12.9015 7.05707 10.3309C7.06775 8.38101 8.40475 7.00784 10.2936 6.99868C12.8074 6.9877 15.3212 6.98587 17.8332 6.99868C19.7239 7.00784 21.0466 8.39382 21.0537 10.3419C21.0573 11.618 21.0537 12.896 21.0537 14.174ZM14.0714 18.9361C16.6137 18.9379 18.7233 16.7793 18.7198 14.1831C18.7162 11.5961 16.5941 9.42096 14.0696 9.41913C11.5274 9.4173 9.44979 11.5594 9.44622 14.1849C9.44444 16.8178 11.506 18.9361 14.0714 18.9361ZM18.5969 10.5268C19.1435 10.5323 19.6099 10.0599 19.6028 9.50701C19.5957 8.97239 19.1417 8.51283 18.6183 8.50917C18.0575 8.50551 17.6124 8.95774 17.6213 9.52715C17.6285 10.0837 18.0557 10.5213 18.5969 10.5268Z" fill="white"/>
<path d="M17.0912 14.2017C17.0805 15.93 15.7097 17.3343 14.0434 17.3215C12.3717 17.3105 11.0133 15.8934 11.024 14.1706C11.0329 12.4587 12.4322 11.0489 14.0968 11.0727C15.7507 11.0983 17.1001 12.5081 17.0912 14.2017Z" fill="white"/>
</svg>
