<svg width="28" height="28" viewBox="0 0 28 28" fill="none" xmlns="http://www.w3.org/2000/svg">
<path d="M27.2136 13.8512C27.1371 21.4551 21.1799 27.5357 13.8612 27.4789C6.49977 27.4203 0.578216 21.2464 0.65653 13.7139C0.736623 6.12639 6.708 0.0879112 14.0623 0.159318C21.3437 0.227063 27.2866 6.41568 27.2136 13.8512ZM5.90708 22.4493C6.10108 22.4292 6.22922 22.4237 6.35381 22.4017C7.57656 22.1875 8.79932 21.9605 10.0239 21.759C10.2268 21.7261 10.4653 21.7444 10.6557 21.8231C11.7129 22.2626 12.8058 22.4713 13.9466 22.4694C18.6134 22.4621 22.3404 18.6171 22.3404 13.7999C22.3404 9.01563 18.5689 5.14317 13.9128 5.15049C7.95746 5.15965 3.87626 11.4032 6.14379 17.081C6.40187 17.7273 6.48196 18.3242 6.35915 18.9888C6.2577 19.5344 6.20074 20.0874 6.13133 20.6385C6.05302 21.2262 5.98361 21.8176 5.90708 22.4493Z" fill="white"/>
<path d="M7.64265 20.6807C7.75656 19.7982 7.88292 19.0145 7.94521 18.2254C7.96835 17.9196 7.91495 17.5644 7.7779 17.2971C5.52106 12.8955 7.94165 7.63885 12.6618 6.71788C16.6148 5.94705 20.365 8.79418 20.9007 12.9742C21.4115 16.9529 18.4356 20.688 14.5111 21.0048C13.2598 21.1055 12.0745 20.8748 10.9282 20.3585C10.6826 20.2486 10.3694 20.2175 10.0988 20.2559C9.30502 20.364 8.51833 20.5251 7.64265 20.6807ZM12.4696 11.7292C12.1973 11.0792 11.9784 10.475 11.6918 9.90923C11.5458 9.62177 11.2451 9.68769 10.9888 9.82134C10.1469 10.2608 9.64675 11.2422 9.86567 12.1961C9.99916 12.7728 10.2181 13.3441 10.4851 13.8696C11.6402 16.1473 13.4503 17.5681 15.8887 18.1375C16.4208 18.262 16.8711 18.0991 17.2378 17.6926C17.4354 17.4729 17.6222 17.2404 17.8002 17.0023C18.0227 16.7075 18.0174 16.4128 17.7237 16.1711C17.3926 15.9001 17.0669 15.6126 16.6985 15.4076C16.5347 15.3179 16.2304 15.3398 16.0667 15.4424C15.7854 15.6181 15.5825 15.9166 15.3138 16.1216C15.1856 16.2205 14.9365 16.3157 14.8261 16.2535C13.5108 15.5229 12.4358 14.5415 11.8288 13.0933C11.7345 12.8699 11.779 12.7271 11.9481 12.5421C12.1546 12.3188 12.2898 12.0203 12.4696 11.7292Z" fill="white"/>
</svg>
