<svg width="26" height="26" viewBox="0 0 26 26" fill="none" xmlns="http://www.w3.org/2000/svg">
<path d="M26 13.007C26 20.2048 20.1789 26.0087 12.9687 26C5.81078 25.9913 -0.0277862 20.1281 9.94753e-05 12.9756C0.0279851 5.7987 5.85609 -0.0104403 13.021 1.40884e-05C20.1963 0.00872605 26 5.82483 26 13.007ZM12.9826 21.3008C14.2549 21.3008 15.5289 21.3164 16.8012 21.2973C19.3458 21.2607 21.2908 19.3441 21.3187 16.8089C21.3483 14.2632 21.3483 11.7193 21.3204 9.17371C21.2925 6.64898 19.3022 4.71318 16.782 4.7097C14.2514 4.70621 11.7191 4.70447 9.18843 4.71144C6.68395 4.71841 4.70232 6.70996 4.69709 9.21552C4.6936 11.6897 4.69535 14.1622 4.69709 16.6364C4.69709 19.3493 6.62295 21.2868 9.33657 21.3008C10.5513 21.306 11.7679 21.3008 12.9826 21.3008Z" fill="white"/>
<path d="M19.8546 12.9964C19.8546 14.2265 19.8599 15.4566 19.8529 16.6868C19.8424 18.5093 18.5335 19.8265 16.7123 19.8353C14.2513 19.8457 11.7904 19.8457 9.33127 19.8353C7.47861 19.8283 6.16276 18.525 6.1523 16.6763C6.13836 14.23 6.13836 11.7854 6.1523 9.33908C6.16276 7.48343 7.47164 6.17664 9.32081 6.16793C11.7817 6.15748 14.2426 6.15573 16.7018 6.16793C18.5527 6.17664 19.8477 7.49563 19.8546 9.34953C19.8581 10.564 19.8546 11.7802 19.8546 12.9964ZM13.0191 17.5283C15.5079 17.5301 17.5732 15.4758 17.5697 13.0051C17.5663 10.5431 15.4888 8.47312 13.0174 8.47137C10.5286 8.46963 8.4947 10.5082 8.49122 13.0068C8.48947 15.5124 10.5077 17.5283 13.0191 17.5283ZM17.4495 9.52552C17.9845 9.53075 18.4412 9.08121 18.4342 8.555C18.4272 8.04623 17.9828 7.60889 17.4704 7.6054C16.9214 7.60192 16.4857 8.03229 16.4944 8.57417C16.5014 9.10386 16.9197 9.52029 17.4495 9.52552Z" fill="white"/>
<path d="M15.9751 13.0227C15.9647 14.6675 14.6227 16.0039 12.9913 15.9917C11.3548 15.9813 10.025 14.6327 10.0355 12.9931C10.0442 11.3639 11.4141 10.0223 13.0436 10.045C14.6627 10.0694 15.9838 11.411 15.9751 13.0227Z" fill="white"/>
</svg>
