<svg width="27" height="28" viewBox="0 0 27 28" fill="none" xmlns="http://www.w3.org/2000/svg">
<path d="M26.5102 13.7907C26.4996 21.1547 20.5272 27.1217 13.1916 27.0985C5.89325 27.0752 -0.013319 21.1136 -0.00976402 13.7728C-0.00798654 6.39275 5.95369 0.40972 13.2751 0.438304C20.5948 0.468675 26.5209 6.44635 26.5102 13.7907ZM13.348 11.3878C10.4098 11.3575 8.26618 9.89611 6.3625 7.85234C5.46488 9.68173 5.9199 11.1413 7.41121 12.3704C7.38277 12.4115 7.35611 12.4508 7.32767 12.4919C6.85664 12.3669 6.38561 12.2436 5.8968 12.1132C6.04611 13.705 6.84242 14.7983 8.37283 15.345C8.35683 15.3807 8.34083 15.4164 8.32306 15.4522C7.90002 15.4522 7.4752 15.4522 6.98817 15.4522C7.26546 16.1435 7.60318 16.7224 8.15775 17.0868C8.70344 17.4441 9.32734 17.6782 9.92635 17.9694C9.37533 18.5089 8.63234 18.8412 7.82537 19.0002C7.03972 19.1556 6.23808 19.2324 5.40444 19.3503C5.49154 19.4057 5.54664 19.4486 5.60885 19.4808C7.13926 20.2758 8.75855 20.6974 10.4863 20.6974C15.6161 20.6974 20.3299 16.726 20.1451 10.8322C20.1397 10.675 20.2695 10.4517 20.4028 10.3606C20.9396 9.99258 21.3538 9.53523 21.6861 8.92603C21.1262 9.07431 20.6357 9.20294 20.1451 9.33336C20.6339 8.76703 21.1085 8.25251 21.336 7.51468C20.7743 7.76122 20.2642 7.97203 19.7665 8.20964C19.4643 8.35435 19.2563 8.29896 18.9915 8.08101C16.9225 6.36417 13.7764 7.50754 13.3516 10.1284C13.2947 10.5125 13.348 10.9144 13.348 11.3878Z" fill="white"/>
</svg>
