<svg width="28" height="29" viewBox="0 0 28 29" fill="none" xmlns="http://www.w3.org/2000/svg">
<path d="M27.2143 14.5594C27.2036 22.1058 21.2226 28.2206 13.8763 28.1968C6.56735 28.173 0.652203 22.0637 0.655763 14.5411C0.657543 6.97825 6.62787 0.847033 13.9599 0.876325C21.2902 0.907448 27.2249 7.03318 27.2143 14.5594ZM14.0329 12.0971C11.0905 12.0659 8.94373 10.5684 7.03729 8.47399C6.13836 10.3487 6.59404 11.8444 8.08752 13.104C8.05903 13.1461 8.03234 13.1864 8.00386 13.2285C7.53214 13.1003 7.06043 12.974 6.57091 12.8404C6.72044 14.4716 7.5179 15.592 9.05053 16.1522C9.03451 16.1888 9.01849 16.2254 9.00069 16.262C8.57703 16.262 8.1516 16.262 7.66386 16.262C7.94155 16.9706 8.27976 17.5637 8.83514 17.9372C9.38162 18.3033 10.0064 18.5432 10.6063 18.8416C10.0545 19.3945 9.31042 19.735 8.50227 19.8979C7.71549 20.0572 6.91268 20.1359 6.07783 20.2568C6.16505 20.3135 6.22024 20.3575 6.28254 20.3904C7.81517 21.2051 9.43681 21.6372 11.167 21.6372C16.3043 21.6372 21.025 17.5674 20.8399 11.5277C20.8345 11.3666 20.9645 11.1377 21.098 11.0444C21.6356 10.6672 22.0503 10.1986 22.3832 9.57428C21.8225 9.72623 21.3312 9.85804 20.8399 9.99169C21.3294 9.41134 21.8047 8.88408 22.0325 8.12797C21.47 8.38062 20.9591 8.59665 20.4607 8.84014C20.1581 8.98843 19.9498 8.93168 19.6846 8.70832C17.6126 6.94896 14.4619 8.12065 14.0365 10.8064C13.9795 11.2 14.0329 11.6119 14.0329 12.0971Z" fill="white"/>
</svg>
