<svg width="27" height="26" viewBox="0 0 27 26" fill="none" xmlns="http://www.w3.org/2000/svg">
<path d="M26.5 13.0218C26.4895 20.2034 20.6343 26.0226 13.4425 25.9999C6.28727 25.9773 0.496516 20.1633 0.500002 13.0044C0.501744 5.80707 6.34652 -0.0277768 13.5244 9.94707e-05C20.7005 0.029718 26.5104 5.85934 26.5 13.0218ZM13.5958 10.6784C10.7153 10.6488 8.61368 9.22365 6.74732 7.2305C5.8673 9.01458 6.3134 10.438 7.77547 11.6367C7.74758 11.6768 7.72145 11.7151 7.69357 11.7552C7.23177 11.6332 6.76998 11.513 6.29076 11.3858C6.43714 12.9382 7.21783 14.0044 8.71823 14.5376C8.70255 14.5724 8.68686 14.6073 8.66943 14.6421C8.25469 14.6421 7.8382 14.6421 7.36072 14.6421C7.63257 15.3164 7.96367 15.8809 8.50737 16.2363C9.04236 16.5847 9.65402 16.813 10.2413 17.097C9.70107 17.6231 8.97265 17.9472 8.1815 18.1022C7.41126 18.2538 6.62534 18.3287 5.80804 18.4437C5.89343 18.4977 5.94746 18.5395 6.00845 18.5709C7.50885 19.3462 9.09638 19.7574 10.7902 19.7574C15.8194 19.7574 20.4409 15.8843 20.2596 10.1366C20.2544 9.98328 20.3816 9.7655 20.5123 9.67665C21.0386 9.31774 21.4446 8.87172 21.7705 8.27761C21.2216 8.42221 20.7406 8.54766 20.2596 8.67484C20.7389 8.12254 21.2041 7.62077 21.4272 6.90121C20.8765 7.14164 20.3764 7.34723 19.8885 7.57896C19.5922 7.72008 19.3883 7.66607 19.1287 7.45351C17.1003 5.7792 14.0158 6.89424 13.5993 9.45015C13.5436 9.82473 13.5958 10.2167 13.5958 10.6784Z" fill="white"/>
</svg>
