<svg width="27" height="26" viewBox="0 0 27 26" fill="none" xmlns="http://www.w3.org/2000/svg">
<path d="M26.5 13.0035C26.4965 20.1647 20.6643 25.993 13.4956 26C6.30953 26.007 0.493036 20.1769 0.500006 12.9704C0.506976 5.7952 6.32522 -0.00522365 13.5061 3.53016e-06C20.6713 0.00523071 26.5035 5.84225 26.5 13.0035ZM13.527 7.22919C11.734 7.33373 9.92002 7.40866 8.11303 7.55328C6.45068 7.6857 5.7955 8.35304 5.63344 10.0013C5.4348 12.0121 5.43131 14.0263 5.6439 16.037C5.80421 17.5686 6.40886 18.1888 7.9353 18.384C10.3957 18.6976 12.8701 18.6959 15.341 18.6279C16.6252 18.5931 17.9112 18.5025 19.1867 18.3613C20.5389 18.2115 21.1505 17.6452 21.3003 16.2984C21.4537 14.9253 21.499 13.5349 21.5077 12.1514C21.5129 11.2559 21.4014 10.3533 21.276 9.46468C21.1313 8.44538 20.511 7.8338 19.4916 7.64388C19.2808 7.6038 19.0699 7.55677 18.8573 7.54283C17.0887 7.4348 15.3201 7.33373 13.527 7.22919Z" fill="white"/>
<path d="M16.0641 12.9772C14.6579 13.7944 13.3232 14.5715 11.9309 15.3817C11.9309 13.763 11.9309 12.221 11.9309 10.6023C13.3249 11.4038 14.6632 12.1722 16.0641 12.9772Z" fill="white"/>
</svg>
