<svg width="27" height="28" viewBox="0 0 27 28" fill="none" xmlns="http://www.w3.org/2000/svg">
<path d="M26.5102 14.0926C26.5067 21.4357 20.5579 27.412 13.2458 27.4191C5.91596 27.4263 -0.0168687 21.4482 -0.00975924 14.0586C-0.0026498 6.70122 5.93196 0.753479 13.2565 0.758838C20.565 0.764198 26.5138 6.74946 26.5102 14.0926ZM13.2778 8.17162C11.4489 8.27882 9.59865 8.35566 7.75553 8.50395C6.05993 8.63973 5.39164 9.32401 5.22635 11.0142C5.02373 13.076 5.02017 15.1413 5.23701 17.2031C5.40053 18.7736 6.01727 19.4096 7.57424 19.6097C10.0839 19.9313 12.6077 19.9295 15.128 19.8599C16.4379 19.8241 17.7496 19.7312 19.0507 19.5865C20.4299 19.4328 21.0537 18.8522 21.2066 17.4711C21.363 16.0632 21.4092 14.6375 21.4181 13.2189C21.4234 12.3006 21.3097 11.3751 21.1817 10.4639C21.0342 9.4187 20.4014 8.79159 19.3617 8.59684C19.1466 8.55575 18.9316 8.50752 18.7147 8.49323C16.9107 8.38246 15.1067 8.27882 13.2778 8.17162Z" fill="white"/>
<path d="M15.8653 14.0655C14.431 14.9035 13.0695 15.7003 11.6494 16.5311C11.6494 14.8713 11.6494 13.2901 11.6494 11.6303C13.0713 12.4522 14.4363 13.2401 15.8653 14.0655Z" fill="white"/>
</svg>
