<svg width="27" height="27" viewBox="0 0 27 27" fill="none" xmlns="http://www.w3.org/2000/svg">
<path d="M0.340414 13.382C0.409728 5.93084 6.39031 -0.000113949 13.7536 0.0802754C21.0903 0.158878 26.9216 6.16844 26.8594 13.5857C26.7989 20.8708 20.7792 26.8088 13.5315 26.7392C6.21258 26.6659 0.272877 20.651 0.340414 13.382ZM11.0024 20.835C11.7844 20.835 12.5397 20.8386 13.2933 20.835C14.0469 20.8314 13.9544 20.9083 13.9562 20.1883C13.9616 18.5895 13.9438 16.9924 13.9651 15.3953C13.9811 14.2431 14.9106 13.3624 16.0605 13.3517C17.1376 13.3427 17.9356 14.1448 18.0049 15.3114C18.0138 15.4722 18.012 15.6329 18.012 15.7955C18.012 17.3354 18.0102 18.8735 18.0156 20.4134C18.0156 20.5831 17.9302 20.8315 18.243 20.8332C19.1424 20.8368 20.0434 20.835 20.9552 20.835C20.973 20.701 20.9943 20.6153 20.9943 20.5313C20.9943 18.3322 21.0085 16.1331 20.9765 13.934C20.9694 13.4928 20.8432 13.0319 20.6762 12.6192C19.6187 10.0182 15.6766 10.1272 14.3561 11.6081C14.2548 11.7224 14.1464 11.8296 13.9473 12.0386C13.9473 11.5241 13.9473 11.1401 13.9473 10.7506C12.9307 10.7506 11.9763 10.7506 11.0006 10.7506C11.0024 14.1127 11.0024 17.4462 11.0024 20.835ZM9.20198 20.81C9.20198 17.4212 9.20198 14.0859 9.20198 10.756C8.19603 10.756 7.22741 10.756 6.26945 10.756C6.26945 14.1288 6.26945 17.4622 6.26945 20.81C7.26473 20.81 8.22091 20.81 9.20198 20.81ZM7.70728 5.60749C6.70489 5.60749 5.91932 6.41318 5.92465 7.43502C5.92999 8.464 6.71377 9.2661 7.71261 9.26432C8.71144 9.26253 9.52011 8.45506 9.52722 7.45109C9.53433 6.41853 8.73278 5.60749 7.70728 5.60749Z" fill="white"/>
</svg>
