<svg width="28" height="28" viewBox="0 0 28 28" fill="none" xmlns="http://www.w3.org/2000/svg">
<path d="M27.2143 14.1814C27.2107 21.7064 21.2533 27.8308 13.9306 27.8381C6.59009 27.8454 0.648648 21.7192 0.655768 14.1466C0.662888 6.60702 6.60611 0.511967 13.9413 0.51746C21.2604 0.522952 27.2178 6.65645 27.2143 14.1814ZM13.9626 8.11384C12.1311 8.2237 10.2781 8.30243 8.43233 8.4544C6.73427 8.59354 6.06501 9.29478 5.89948 11.0268C5.69656 13.1397 5.693 15.2562 5.91016 17.369C6.07391 18.9784 6.69155 19.6302 8.25078 19.8352C10.7641 20.1648 13.2916 20.163 15.8155 20.0916C17.1273 20.0549 18.4409 19.9597 19.7439 19.8114C21.1251 19.654 21.7499 19.0589 21.9029 17.6437C22.0596 16.2009 22.1058 14.7399 22.1147 13.2861C22.1201 12.345 22.0062 11.3966 21.878 10.4629C21.7303 9.39181 21.0966 8.74916 20.0554 8.5496C19.84 8.50749 19.6246 8.45806 19.4075 8.44341C17.6008 8.3299 15.7942 8.2237 13.9626 8.11384Z" fill="white"/>
<path d="M16.5541 14.1538C15.1176 15.0125 13.7542 15.8291 12.332 16.6805C12.332 14.9796 12.332 13.3592 12.332 11.6583C13.756 12.5005 15.123 13.308 16.5541 14.1538Z" fill="white"/>
</svg>
