<svg width="28" height="28" viewBox="0 0 28 28" fill="none" xmlns="http://www.w3.org/2000/svg">
<path d="M0.773032 13.7907C0.842447 6.15499 6.83172 0.0771386 14.2057 0.159519C21.553 0.240069 27.3928 6.39847 27.3305 13.9994C27.27 21.4649 21.2416 27.5501 13.9832 27.4787C6.65373 27.4036 0.705397 21.2398 0.773032 13.7907ZM11.4505 21.4283C12.2336 21.4283 12.9901 21.432 13.7447 21.4283C14.4994 21.4247 14.4068 21.5034 14.4086 20.7656C14.414 19.1272 14.3962 17.4905 14.4175 15.8539C14.4335 14.6731 15.3644 13.7706 16.516 13.7596C17.5946 13.7505 18.3938 14.5724 18.4632 15.7679C18.4721 15.9326 18.4703 16.0974 18.4703 16.264C18.4703 17.842 18.4685 19.4182 18.4738 20.9963C18.4738 21.1702 18.3884 21.4247 18.7017 21.4265C19.6023 21.4302 20.5047 21.4283 21.4178 21.4283C21.4355 21.291 21.4569 21.2031 21.4569 21.1171C21.4569 18.8635 21.4711 16.61 21.4391 14.3564C21.432 13.9042 21.3056 13.4319 21.1383 13.009C20.0793 10.3436 16.1315 10.4552 14.8091 11.9729C14.7076 12.09 14.5991 12.1999 14.3997 12.4141C14.3997 11.8868 14.3997 11.4932 14.3997 11.0942C13.3816 11.0942 12.4258 11.0942 11.4487 11.0942C11.4505 14.5395 11.4505 17.9555 11.4505 21.4283ZM9.64746 21.4027C9.64746 17.9299 9.64746 14.512 9.64746 11.0996C8.64006 11.0996 7.67003 11.0996 6.71068 11.0996C6.71068 14.556 6.71068 17.972 6.71068 21.4027C7.70741 21.4027 8.66498 21.4027 9.64746 21.4027ZM8.1506 5.82363C7.14675 5.82363 6.36004 6.64927 6.36538 7.69642C6.37072 8.75089 7.15564 9.57286 8.15593 9.57103C9.15622 9.5692 9.96606 8.74173 9.97318 7.71289C9.9803 6.65476 9.17758 5.82363 8.1506 5.82363Z" fill="white"/>
</svg>
