<svg width="28" height="29" viewBox="0 0 28 29" fill="none" xmlns="http://www.w3.org/2000/svg">
<path d="M27.331 14.5429C27.3149 22.1003 21.3428 28.2206 14.0054 28.1968C6.65202 28.173 0.756473 22.0582 0.772494 14.4679C0.786734 6.96903 6.75349 0.863425 14.0588 0.876241C21.3767 0.890887 27.3452 7.03677 27.331 14.5429ZM15.1945 24.841C15.1945 21.9722 15.1945 19.1418 15.1945 16.2693C16.008 16.2693 16.7663 16.2785 17.5246 16.2602C17.6492 16.2565 17.8646 16.1503 17.8788 16.0606C18.0675 14.986 18.226 13.9058 18.404 12.7561C17.3057 12.7561 16.2626 12.7561 15.1874 12.7561C15.1874 11.8828 15.1892 11.0736 15.1874 10.2644C15.1856 9.54676 15.5238 9.05062 16.1647 8.81811C16.5011 8.69545 16.8749 8.66799 17.2362 8.64419C17.6528 8.61489 18.0711 8.63686 18.4858 8.63686C18.4858 7.62628 18.4858 6.69076 18.4858 5.73143C17.8361 5.70031 17.2238 5.66919 16.6132 5.64356C16.1611 5.62342 15.7072 5.57399 15.2568 5.60328C13.3522 5.72411 12.0047 6.9251 11.6842 8.94444C11.5151 10.0173 11.5846 11.1285 11.5454 12.2233C11.5401 12.3954 11.5294 12.5675 11.5205 12.7781C10.4898 12.7781 9.51614 12.7781 8.51753 12.7781C8.51753 13.9516 8.51753 15.083 8.51753 16.273C9.5286 16.273 10.5147 16.273 11.5561 16.273C11.5561 19.1601 11.5561 21.9886 11.5561 24.8392C12.7772 24.841 13.9414 24.841 15.1945 24.841Z" fill="white"/>
</svg>
