<svg width="27" height="27" viewBox="0 0 27 27" fill="none" xmlns="http://www.w3.org/2000/svg">
<path d="M26.5096 13.441C26.4331 20.8612 20.4846 26.7948 13.1765 26.7394C5.82576 26.6822 -0.0871985 20.6575 -0.00899883 13.307C0.0709781 5.90293 6.03369 0.0103982 13.3774 0.0800794C20.6481 0.146187 26.5824 6.18523 26.5096 13.441ZM5.23393 21.8313C5.42766 21.8117 5.55561 21.8063 5.68002 21.7849C6.901 21.5758 8.12198 21.3543 9.34474 21.1578C9.54735 21.1256 9.78551 21.1435 9.97568 21.2203C11.0314 21.6491 12.1226 21.8528 13.2618 21.851C17.9218 21.8438 21.6434 18.0918 21.6434 13.391C21.6434 8.72234 17.8774 4.94347 13.2281 4.95062C7.28134 4.95955 3.20607 11.0522 5.4703 16.5927C5.72801 17.2234 5.80799 17.8059 5.68536 18.4545C5.58405 18.9869 5.52717 19.5265 5.45786 20.0643C5.37966 20.6378 5.31036 21.2149 5.23393 21.8313Z" fill="white"/>
<path d="M6.96631 20.1055C7.08006 19.2443 7.20623 18.4796 7.26844 17.7095C7.29154 17.4111 7.23822 17.0645 7.10137 16.8036C4.8478 12.5084 7.26488 7.3788 11.9782 6.48009C15.9255 5.72789 19.6702 8.50621 20.2052 12.5852C20.7152 16.4677 17.7436 20.1126 13.8248 20.4217C12.5754 20.52 11.3917 20.2948 10.2471 19.791C10.0019 19.6838 9.68908 19.6534 9.41893 19.6909C8.62627 19.7964 7.84073 19.9536 6.96631 20.1055ZM11.7863 11.3703C11.5143 10.736 11.2957 10.1464 11.0096 9.59431C10.8639 9.31379 10.5635 9.37812 10.3076 9.50855C9.46692 9.93736 8.96751 10.895 9.18611 11.8259C9.31941 12.3887 9.53801 12.9462 9.8046 13.4589C10.958 15.6816 12.7655 17.0681 15.2004 17.6237C15.7318 17.7452 16.1814 17.5862 16.5475 17.1896C16.7448 16.9752 16.9314 16.7482 17.1092 16.516C17.3313 16.2283 17.326 15.9407 17.0327 15.7048C16.7022 15.4404 16.3769 15.1599 16.009 14.9598C15.8455 14.8722 15.5416 14.8937 15.3781 14.9937C15.0973 15.1652 14.8947 15.4565 14.6263 15.6566C14.4984 15.7531 14.2495 15.846 14.1394 15.7852C12.826 15.0723 11.7525 14.1147 11.1464 12.7014C11.0522 12.4834 11.0967 12.344 11.2655 12.1636C11.4717 11.9456 11.6067 11.6544 11.7863 11.3703Z" fill="white"/>
</svg>
