<svg width="10" height="14" viewBox="0 0 10 14" fill="none" xmlns="http://www.w3.org/2000/svg">
<g clip-path="url(#clip0_30_978)">
<path d="M8.98022 5.57031C9.03231 5.6224 9.05835 5.68229 9.05835 5.75C9.05835 5.81771 9.03231 5.8776 8.98022 5.92969L5.3396 9.57031C5.28752 9.6224 5.22762 9.64844 5.15991 9.64844C5.0922 9.64844 5.03231 9.6224 4.98022 9.57031L1.3396 5.92969C1.28752 5.8776 1.26147 5.81771 1.26147 5.75C1.26147 5.68229 1.28752 5.6224 1.3396 5.57031L1.73022 5.17969C1.78231 5.1276 1.8422 5.10156 1.90991 5.10156C1.97762 5.10156 2.03752 5.1276 2.0896 5.17969L5.15991 8.25L8.23022 5.17969C8.28231 5.1276 8.3422 5.10156 8.40991 5.10156C8.47762 5.10156 8.53752 5.1276 8.5896 5.17969L8.98022 5.57031Z" fill="#222222"/>
</g>
<defs>
<clipPath id="clip0_30_978">
<rect width="9" height="14" fill="white" transform="matrix(1 0 0 -1 0.659912 14)"/>
</clipPath>
</defs>
</svg>
