<svg width="20" height="21" viewBox="0 0 20 21" fill="none" xmlns="http://www.w3.org/2000/svg">
<path fill-rule="evenodd" clip-rule="evenodd" d="M12.5 16.325C12.5 16.4907 12.4342 16.6497 12.3169 16.7669C12.1997 16.8841 12.0408 16.95 11.875 16.95H1.875C1.70924 16.95 1.55027 16.8841 1.43306 16.7669C1.31585 16.6497 1.25 16.4907 1.25 16.325V5.07495C1.25 4.90919 1.31585 4.75022 1.43306 4.63301C1.55027 4.5158 1.70924 4.44995 1.875 4.44995H11.875C12.0408 4.44995 12.1997 4.5158 12.3169 4.63301C12.4342 4.75022 12.5 4.90919 12.5 5.07495V7.57495C12.5 7.74071 12.5658 7.89968 12.6831 8.01689C12.8003 8.1341 12.9592 8.19995 13.125 8.19995C13.2908 8.19995 13.4497 8.1341 13.5669 8.01689C13.6842 7.89968 13.75 7.74071 13.75 7.57495V5.07495C13.75 4.57767 13.5525 4.10076 13.2008 3.74913C12.8492 3.3975 12.3723 3.19995 11.875 3.19995H1.875C1.37772 3.19995 0.900805 3.3975 0.549175 3.74913C0.197544 4.10076 0 4.57767 0 5.07495L0 16.325C0 16.8222 0.197544 17.2991 0.549175 17.6508C0.900805 18.0024 1.37772 18.2 1.875 18.2H11.875C12.3723 18.2 12.8492 18.0024 13.2008 17.6508C13.5525 17.2991 13.75 16.8222 13.75 16.325V13.825C13.75 13.6592 13.6842 13.5002 13.5669 13.383C13.4497 13.2658 13.2908 13.2 13.125 13.2C12.9592 13.2 12.8003 13.2658 12.6831 13.383C12.5658 13.5002 12.5 13.6592 12.5 13.825V16.325Z" fill="#252930"/>
<path fill-rule="evenodd" clip-rule="evenodd" d="M19.8175 11.1425C19.8757 11.0845 19.9219 11.0155 19.9534 10.9395C19.9849 10.8636 20.0011 10.7822 20.0011 10.7C20.0011 10.6178 19.9849 10.5364 19.9534 10.4605C19.9219 10.3845 19.8757 10.3156 19.8175 10.2575L16.0675 6.50751C15.9501 6.39015 15.791 6.32422 15.625 6.32422C15.459 6.32422 15.2999 6.39015 15.1825 6.50751C15.0651 6.62487 14.9992 6.78404 14.9992 6.95001C14.9992 7.11598 15.0651 7.27515 15.1825 7.39251L17.8663 10.075H6.875C6.70924 10.075 6.55027 10.1409 6.43306 10.2581C6.31585 10.3753 6.25 10.5342 6.25 10.7C6.25 10.8658 6.31585 11.0247 6.43306 11.142C6.55027 11.2592 6.70924 11.325 6.875 11.325H17.8663L15.1825 14.0075C15.0651 14.1249 14.9992 14.284 14.9992 14.45C14.9992 14.616 15.0651 14.7752 15.1825 14.8925C15.2999 15.0099 15.459 15.0758 15.625 15.0758C15.791 15.0758 15.9501 15.0099 16.0675 14.8925L19.8175 11.1425Z" fill="#252930"/>
</svg>
