<svg width="20" height="21" viewBox="0 0 20 21" fill="none" xmlns="http://www.w3.org/2000/svg">
<path fill-rule="evenodd" clip-rule="evenodd" d="M2.5 17.575V9.44995H3.75V17.575C3.75 17.7407 3.81585 17.8997 3.93306 18.0169C4.05027 18.1341 4.20924 18.2 4.375 18.2H15.625C15.7908 18.2 15.9497 18.1341 16.0669 18.0169C16.1842 17.8997 16.25 17.7407 16.25 17.575V9.44995H17.5V17.575C17.5 18.0722 17.3025 18.5491 16.9508 18.9008C16.5992 19.2524 16.1223 19.45 15.625 19.45H4.375C3.87772 19.45 3.40081 19.2524 3.04917 18.9008C2.69754 18.5491 2.5 18.0722 2.5 17.575ZM16.25 3.82495V8.19995L13.75 5.69995V3.82495C13.75 3.65919 13.8158 3.50022 13.9331 3.38301C14.0503 3.2658 14.2092 3.19995 14.375 3.19995H15.625C15.7908 3.19995 15.9497 3.2658 16.0669 3.38301C16.1842 3.50022 16.25 3.65919 16.25 3.82495Z" fill="#252930"/>
<path fill-rule="evenodd" clip-rule="evenodd" d="M9.11606 2.57497C9.35047 2.34063 9.66836 2.20898 9.99981 2.20898C10.3313 2.20898 10.6492 2.34063 10.8836 2.57497L19.1923 10.8825C19.3097 10.9998 19.3756 11.159 19.3756 11.325C19.3756 11.4909 19.3097 11.6501 19.1923 11.7675C19.075 11.8848 18.9158 11.9508 18.7498 11.9508C18.5838 11.9508 18.4247 11.8848 18.3073 11.7675L9.99981 3.45872L1.69231 11.7675C1.57495 11.8848 1.41578 11.9508 1.24981 11.9508C1.08384 11.9508 0.924671 11.8848 0.807313 11.7675C0.689955 11.6501 0.624023 11.4909 0.624023 11.325C0.624023 11.159 0.689955 10.9998 0.807313 10.8825L9.11606 2.57497Z" fill="#252930"/>
</svg>
