<svg width="20" height="21" viewBox="0 0 20 21" fill="none" xmlns="http://www.w3.org/2000/svg">
<path fill-rule="evenodd" clip-rule="evenodd" d="M9.5575 2.13253C9.61556 2.07433 9.68453 2.02815 9.76046 1.99664C9.83639 1.96513 9.91779 1.94891 10 1.94891C10.0822 1.94891 10.1636 1.96513 10.2395 1.99664C10.3155 2.02815 10.3844 2.07433 10.4425 2.13253L17.9425 9.63253C18.0005 9.69068 18.0465 9.75969 18.0778 9.83562C18.1091 9.91154 18.1251 9.9929 18.125 10.075V18.825C18.125 18.9908 18.0592 19.1498 17.9419 19.267C17.8247 19.3842 17.6658 19.45 17.5 19.45H11.875C11.7092 19.45 11.5503 19.3842 11.4331 19.267C11.3158 19.1498 11.25 18.9908 11.25 18.825V13.825H8.75V18.825C8.75 18.9908 8.68415 19.1498 8.56694 19.267C8.44973 19.3842 8.29076 19.45 8.125 19.45H2.5C2.33424 19.45 2.17527 19.3842 2.05806 19.267C1.94085 19.1498 1.875 18.9908 1.875 18.825V10.075C1.87485 9.9929 1.8909 9.91154 1.92221 9.83562C1.95353 9.75969 1.9995 9.69068 2.0575 9.63253L9.5575 2.13253ZM3.125 10.3338V18.2H7.5V13.2C7.5 13.0343 7.56585 12.8753 7.68306 12.7581C7.80027 12.6409 7.95924 12.575 8.125 12.575H11.875C12.0408 12.575 12.1997 12.6409 12.3169 12.7581C12.4342 12.8753 12.5 13.0343 12.5 13.2V18.2H16.875V10.3338L10 3.45878L3.125 10.3338Z" fill="#252930"/>
<path fill-rule="evenodd" clip-rule="evenodd" d="M16.25 3.82501V8.20001L13.75 5.70001V3.82501C13.75 3.65925 13.8158 3.50028 13.9331 3.38307C14.0503 3.26586 14.2092 3.20001 14.375 3.20001H15.625C15.7908 3.20001 15.9497 3.26586 16.0669 3.38307C16.1842 3.50028 16.25 3.65925 16.25 3.82501Z" fill="#252930"/>
</svg>
