<svg width="20" height="21" viewBox="0 0 20 21" fill="none" xmlns="http://www.w3.org/2000/svg">
<path d="M9.99968 10.6775C12.0797 8.58627 17.2809 12.245 9.99968 16.95C2.71843 12.245 7.91968 8.58752 9.99968 10.6775Z" fill="#222222"/>
<path d="M4.6875 0.700012C4.49344 0.700012 4.30205 0.745194 4.12848 0.831978C3.95491 0.918763 3.80393 1.04477 3.6875 1.20001L0.125 5.95001C0.0438612 6.0582 0 6.18978 0 6.32501L0 19.45C0 19.7815 0.131696 20.0995 0.366117 20.3339C0.600537 20.5683 0.918479 20.7 1.25 20.7H18.75C19.0815 20.7 19.3995 20.5683 19.6339 20.3339C19.8683 20.0995 20 19.7815 20 19.45V6.32501C20 6.18978 19.9561 6.0582 19.875 5.95001L16.3125 1.20001C16.1961 1.04477 16.0451 0.918763 15.8715 0.831978C15.6979 0.745194 15.5066 0.700012 15.3125 0.700012H4.6875ZM4.6875 1.95001H9.375V5.70001H1.875L4.6875 1.95001ZM10.625 5.70001V1.95001H15.3125L18.125 5.70001H10.625ZM18.75 6.95001V19.45H1.25V6.95001H18.75Z" fill="#222222"/>
</svg>
